<?xml version="1.0" encoding="utf-8"?>
<svg width="800px" height="800px" viewBox="0 0 24 24" xmlns="http://www.w3.org/2000/svg">
    <filter id="dropshadow" height="200%">
        <feGaussianBlur in="SourceAlpha" stdDeviation="0.5"/> <!-- stdDeviation is how much to blur -->
        <feOffset dx="0.5" dy="0.5" result="offsetblur"/> <!-- how much to offset -->
        <feComponentTransfer>
            <feFuncA type="linear" slope="0.5"/> <!-- slope is the opacity of the shadow -->
        </feComponentTransfer>
        <feMerge>
            <feMergeNode/> <!-- this contains the offset blurred image -->
            <feMergeNode in="SourceGraphic"/> <!-- this contains the element that the filter is applied to -->
        </feMerge>
    </filter>

    <g style="filter:url(#dropshadow)">
        <svg>
            <circle fill="#2f3fb5" cx="12" cy="9" r="7"/>
            <path fill="#5B6DEE" d="M7.54 14.40L7.35 15L6.71 17.32C6.08 19.61 5.77 20.76 6.19 21.38C6.33 21.60 6.53 21.78 6.76 21.90C7.41 22.23 8.42 21.70 10.43 20.65C11.10 20.30 11.44 20.13 11.80 20.09C11.93 20.08 12.06 20.08 12.19 20.09C12.55 20.13 12.89 20.30 13.56 20.65C15.57 21.70 16.58 22.23 17.23 21.90C17.46 21.78 17.66 21.60 17.80 21.38C18.22 20.76 17.91 19.61 17.28 17.32L16.64 15L16.45 14.40C15.24 15.39 13.69 16 12 16C10.30 16 8.75 15.39 7.54 14.40Z"/>
        </svg>
    </g>

    <g>
        <svg x="5" y="2" width="100" height="100" viewBox="0 0 800 800" style="filter:url(#dropshadow)">
            <g fill="none">
                <circle cx="16" cy="16" r="16" fill="#5B6DEE"/>
                <path fill="#FFF" d="M13.3 15.02a9.144 9.144 0 0 0-1.664.144c.452-4.18 3.936-7.346 8.084-7.346 2.54 0 4.28 1.244 4.28 3.818 0 2.575-2.089 3.819-5.136 3.819-2.25 0-3.314-.434-5.564-.434m-.164 1.524C10.089 16.545 8 17.79 8 20.364s1.74 3.818 4.28 3.818c4.148 0 7.632-3.165 8.084-7.346a9.144 9.144 0 0 1-1.664.144c-2.25 0-3.315-.435-5.564-.435"/>
            </g>
        </svg>
    </g>

    <g>
        <svg x="10.2" y="16.2" width="3.6" height="3.6" viewBox="0 0 512 512"  xml:space="preserve">
            <style type="text/css">
                <![CDATA[
                    .st1{fill:#2f3fb5;}
                ]]>
            </style>
            <g>
	<path class="st1" d="M191.781,272.891c7.438,9.891,28.125,14.047,41.406,9.891C248.031,278.125,256,266.469,256,266.469
		s7.438,12.219,22.813,16.313c13.422,3.531,33.984,0,41.406-9.891c7.422-9.906,4.766-16.891,4.766-16.891s-4.234,8.156-12.188,7.563
		c-7.969-0.578-16.453-19.188-32.375-25C264.5,232.734,256,242.047,256,242.047s-8.484-9.313-24.406-3.484
		c-15.922,5.813-24.422,24.422-32.375,25c-7.969,0.594-12.203-7.563-12.203-7.563S184.359,262.984,191.781,272.891z"/>
                <polygon class="st1" points="256,119.531 263.688,119.531 256,109.688 248.297,119.531 	"/>
                <path class="st1" d="M273.031,110.453c5.359,0,9.719-4.359,9.719-9.719v-2.203c0-5.344-4.359-9.688-9.719-9.688
		s-9.703,4.344-9.703,9.688v2.203C263.328,106.094,267.672,110.453,273.031,110.453z"/>
                <path class="st1" d="M106.406,180.516h12.188c-6.875,36.125-20.875,91.891-44.531,113.578c21.141,9.047,43.781-3.031,43.781-3.031
		s-1.5,39.25-7.547,46.813c7.406,0,34-17.75,49.313-28.406c17.359,21.484,48.531,42.188,96.391,42.188s79.031-20.703,96.391-42.188
		c15.313,10.656,41.906,28.406,49.297,28.406c-6.031-7.563-7.531-46.813-7.531-46.813s22.641,12.078,43.781,3.031
		c-23.656-21.688-37.656-77.453-44.531-113.578h12.188c23.969,0,43.422-19.453,43.422-43.438s-19.453-43.438-43.422-43.438
		c-23.984,0-36.188-9.609-53.094-24.094C311.484,43,309.078,0,256,0c-53.094,0-55.5,43-96.516,69.547
		c-16.891,14.484-29.094,24.094-53.078,24.094s-43.422,19.453-43.422,43.438S82.422,180.516,106.406,180.516z M256,57.094
		L256,57.094c26.375,0,39.938,21.188,39.938,43.219c0,8.281-1.813,15.078-5.859,19.063c-5.375,5.281-11.688,4.734-12.313,5.313
		c0,0,0,5.547,0,9.25v1.453c0,1.219-1,2.234-2.234,2.234h-5.359c-1.234,0-2.234-1.016-2.234-2.234v-6.797
		c-0.516-0.313-0.984,0.031-1.422-0.172c0,0.016,0.016,0.016,0.016,0.047v6.922c0,1.219-1,2.234-2.234,2.234h-5.359
		c-1.234,0-2.234-1.016-2.234-2.234v-6.922c0-0.234,0.047-0.438,0.109-0.641H256h-0.813c0.063,0.203,0.094,0.406,0.094,0.641v6.922
		c0,1.219-0.984,2.234-2.234,2.234h-5.344c-1.234,0-2.234-1.016-2.234-2.234v-6.922c0-0.031,0-0.031,0-0.047
		c-0.422,0.203-0.906-0.141-1.422,0.172v6.797c0,1.219-1,2.234-2.219,2.234h-5.359c-1.234,0-2.234-1.016-2.234-2.234v-1.453
		c0-3.703,0-9.25,0-9.25c-0.625-0.578-6.938-0.031-12.313-5.313c-4.063-3.984-5.859-10.781-5.859-19.063
		C216.063,78.281,229.625,57.094,256,57.094z M338.844,180.516v90.547c-0.672,6.563-19.688,50-82.844,50
		s-82.172-43.438-82.844-49.625v-90.922H338.844z"/>
                <path class="st1" d="M238.969,110.453c5.359,0,9.703-4.359,9.703-9.719v-2.203c0-5.344-4.344-9.688-9.703-9.688
		c-5.375,0-9.719,4.344-9.719,9.688v2.203C229.25,106.094,233.594,110.453,238.969,110.453z"/>
                <path class="st1" d="M478.766,447c-7.656-21.047-21.031-32.516-36.328-36.344c-15.297-3.813-95.609-26.766-95.609-26.766v-30.594
		c-45.891,32.516-87.953,22.953-87.953,22.953s-47.813,9.563-93.703-22.953v30.594c0,0-80.313,22.953-95.609,26.766
		C54.281,414.484,40.891,425.953,33.234,447c-7.641,21.016-7.641,53.531-7.641,53.531S138.406,512,258.875,512
		c120.453,0,227.531-11.469,227.531-11.469S486.406,468.016,478.766,447z M256,489.063c-6.766,0-12.234-5.5-12.234-12.25
		s5.469-12.234,12.234-12.234c6.75,0,12.234,5.484,12.234,12.234S262.75,489.063,256,489.063z M256,440.109
		c-6.766,0-12.234-5.484-12.234-12.234s5.469-12.25,12.234-12.25c6.75,0,12.234,5.5,12.234,12.25S262.75,440.109,256,440.109z"/>
</g>
</svg>
    </g>

    <g>
        <svg x="7.5" y="5" width="200px" height="200px" viewBox="0 0 800 800" style="filter:url(#dropshadow)">
            <style type="text/css">
                .st0{fill:none;stroke:#5B6DEE;stroke-width:2;stroke-linecap:round;stroke-linejoin:round;stroke-miterlimit:10;}
            </style>
            <line class="st0" x1="16" y1="19" x2="16" y2="12"/>
            <line class="st0" x1="19" y1="19" x2="19" y2="12"/>
            <line class="st0" x1="22" y1="19" x2="22" y2="13"/>
            <path class="st0" d="M23,29L23,29c1.3-3.3,2-6.8,2-10.4v-5.1c0-0.8-0.7-1.5-1.5-1.5S22,12.7,22,13.5v-1c0-0.8-0.7-1.5-1.5-1.5
	S19,11.7,19,12.5v-1c0-0.8-0.7-1.5-1.5-1.5S16,10.7,16,11.5v1c0-0.8-0.7-1.5-1.5-1.5S13,11.7,13,12.5V20v2.4l-2.5-2.5
	c-0.6-0.6-1.5-0.7-2.1-0.2c-0.8,0.6-0.9,1.8-0.2,2.5L15,29"/>
            <path class="st0" d="M23.7,27c4,0.2,7.3-3,7.3-7c0-1.2-0.3-2.3-0.8-3.3c-0.8-1.5-0.9-3.2-0.4-4.7c0.3-1,0.4-2,0.2-3.1
	c-0.5-2.9-2.8-5.2-5.7-5.7c-1.6-0.3-3.2,0-4.5,0.7C18,4.7,16,4.9,14.1,4.3c-1-0.3-2.2-0.4-3.4-0.2C7.9,4.6,5.6,6.9,5.1,9.7
	c0,0,0,0.1,0,0.1c-0.5,3.1-1.6,6-3.2,8.8c-0.8,1.4-1.1,3-0.8,4.7c0.5,2.8,2.7,5.1,5.5,5.6c2.5,0.5,4.8-0.3,6.4-1.9"/>
        </svg>
    </g>
</svg>