<?xml version="1.0" encoding="utf-8"?>
<svg width="800px" height="800px" viewBox="0 0 24 24" xmlns="http://www.w3.org/2000/svg">
    <filter id="dropshadow" height="200%">
        <feGaussianBlur in="SourceAlpha" stdDeviation="0.5"/> <!-- stdDeviation is how much to blur -->
        <feOffset dx="0.5" dy="0.5" result="offsetblur"/> <!-- how much to offset -->
        <feComponentTransfer>
            <feFuncA type="linear" slope="0.5"/> <!-- slope is the opacity of the shadow -->
        </feComponentTransfer>
        <feMerge>
            <feMergeNode/> <!-- this contains the offset blurred image -->
            <feMergeNode in="SourceGraphic"/> <!-- this contains the element that the filter is applied to -->
        </feMerge>
    </filter>

    <g style="filter:url(#dropshadow)">
        <svg>
            <circle cx="12" cy="9" r="7" fill="#2f3fb5"/>
            <path d="M7.54 14.40L7.35 15L6.71 17.32C6.08 19.61 5.77 20.76 6.19 21.38C6.33 21.60 6.53 21.78 6.76 21.90C7.41 22.23 8.42 21.70 10.43 20.65C11.10 20.30 11.44 20.13 11.80 20.09C11.93 20.08 12.06 20.08 12.19 20.09C12.55 20.13 12.89 20.30 13.56 20.65C15.57 21.70 16.58 22.23 17.23 21.90C17.46 21.78 17.66 21.60 17.80 21.38C18.22 20.76 17.91 19.61 17.28 17.32L16.64 15L16.45 14.40C15.24 15.39 13.69 16 12 16C10.30 16 8.75 15.39 7.54 14.40Z" fill="#5B6DEE"/>
        </svg>
    </g>

    <g>
        <svg x="5" y="2" width="100" height="100" viewBox="0 0 800 800" style="filter:url(#dropshadow)">
            <g fill="none">
                <circle cx="16" cy="16" r="16" fill="#5B6DEE"/>
                <path fill="#FFF" d="M13.3 15.02a9.144 9.144 0 0 0-1.664.144c.452-4.18 3.936-7.346 8.084-7.346 2.54 0 4.28 1.244 4.28 3.818 0 2.575-2.089 3.819-5.136 3.819-2.25 0-3.314-.434-5.564-.434m-.164 1.524C10.089 16.545 8 17.79 8 20.364s1.74 3.818 4.28 3.818c4.148 0 7.632-3.165 8.084-7.346a9.144 9.144 0 0 1-1.664.144c-2.25 0-3.315-.435-5.564-.435"/>
            </g>
        </svg>
    </g>
    <g>
        <svg fill="#2f3fb5" height="150px" width="150px"
             viewBox="0 0 1000 1000" x="10.2" y="16.2" xml:space="preserve">
            <g id="group">
	            <path d="M24,15.9c0-2.8-1.5-5-3.7-6.1C21.3,8.8,22,7.5,22,6c0-2.8-2.2-5-5-5c-2.1,0-3.8,1.2-4.6,3c0,0,0,0,0,0c-0.1,0-0.3,0-0.4,0
		c-0.1,0-0.3,0-0.4,0c0,0,0,0,0,0C10.8,2.2,9.1,1,7,1C4.2,1,2,3.2,2,6c0,1.5,0.7,2.8,1.7,3.8C1.5,10.9,0,13.2,0,15.9V20h5v3h14v-3h5
		V15.9z M17,3c1.7,0,3,1.3,3,3c0,1.6-1.3,3-3,3c0-1.9-1.1-3.5-2.7-4.4c0,0,0,0,0,0C14.8,3.6,15.8,3,17,3z M13.4,4.2
		C13.4,4.2,13.4,4.2,13.4,4.2C13.4,4.2,13.4,4.2,13.4,4.2z M15,9c0,1.7-1.3,3-3,3s-3-1.3-3-3s1.3-3,3-3S15,7.3,15,9z M10.6,4.2
		C10.6,4.2,10.6,4.2,10.6,4.2C10.6,4.2,10.6,4.2,10.6,4.2z M7,3c1.2,0,2.2,0.6,2.7,1.6C8.1,5.5,7,7.1,7,9C5.3,9,4,7.7,4,6S5.3,3,7,3
		z M5.1,18H2v-2.1C2,13.1,4.1,11,7,11v0c0,0,0,0,0,0c0.1,0,0.2,0,0.3,0c0,0,0,0,0,0c0.3,0.7,0.8,1.3,1.3,1.8
		C6.7,13.8,5.4,15.7,5.1,18z M17,21H7v-2.1c0-2.8,2.2-4.9,5-4.9c2.9,0,5,2.1,5,4.9V21z M22,18h-3.1c-0.3-2.3-1.7-4.2-3.7-5.2
		c0.6-0.5,1-1.1,1.3-1.8c0.1,0,0.2,0,0.4,0v0c2.9,0,5,2.1,5,4.9V18z"/>
            </g>
        </svg>
    </g>
    <g style="filter:url(#dropshadow)">
        <svg x="7" y="4" height="20" width="20" viewBox="0 0 1000 1000"  xml:space="preserve">
            <style type="text/css">
                .st0{fill:#5B6DEE;}
            </style>
            <g>
	            <polygon class="st0" points="386.415,193.208 287.481,193.208 359.434,0 161.566,0 125.585,280.151 206.528,280.151 170.557,512"/>
            </g>
        </svg>
    </g>
</svg>