<?xml version="1.0" encoding="utf-8"?>
<svg width="800px" height="800px" viewBox="0 0 24 24" xmlns="http://www.w3.org/2000/svg">
    <filter id="dropshadow" height="200%">
        <feGaussianBlur in="SourceAlpha" stdDeviation="0.5"/> <!-- stdDeviation is how much to blur -->
        <feOffset dx="0.5" dy="0.5" result="offsetblur"/> <!-- how much to offset -->
        <feComponentTransfer>
            <feFuncA type="linear" slope="0.5"/> <!-- slope is the opacity of the shadow -->
        </feComponentTransfer>
        <feMerge>
            <feMergeNode/> <!-- this contains the offset blurred image -->
            <feMergeNode in="SourceGraphic"/> <!-- this contains the element that the filter is applied to -->
        </feMerge>
    </filter>

    <g style="filter:url(#dropshadow)">
        <svg>
            <circle fill="#2f3fb5" cx="12" cy="9" r="7"/>
            <path fill="#5B6DEE" d="M7.54 14.40L7.35 15L6.71 17.32C6.08 19.61 5.77 20.76 6.19 21.38C6.33 21.60 6.53 21.78 6.76 21.90C7.41 22.23 8.42 21.70 10.43 20.65C11.10 20.30 11.44 20.13 11.80 20.09C11.93 20.08 12.06 20.08 12.19 20.09C12.55 20.13 12.89 20.30 13.56 20.65C15.57 21.70 16.58 22.23 17.23 21.90C17.46 21.78 17.66 21.60 17.80 21.38C18.22 20.76 17.91 19.61 17.28 17.32L16.64 15L16.45 14.40C15.24 15.39 13.69 16 12 16C10.30 16 8.75 15.39 7.54 14.40Z"/>
        </svg>
    </g>

    <g>
        <svg x="5" y="2" width="100" height="100" viewBox="0 0 800 800" style="filter:url(#dropshadow)">
            <g fill="none">
                <circle cx="16" cy="16" r="16" fill="#5B6DEE"/>
                <path fill="#FFF" d="M13.3 15.02a9.144 9.144 0 0 0-1.664.144c.452-4.18 3.936-7.346 8.084-7.346 2.54 0 4.28 1.244 4.28 3.818 0 2.575-2.089 3.819-5.136 3.819-2.25 0-3.314-.434-5.564-.434m-.164 1.524C10.089 16.545 8 17.79 8 20.364s1.74 3.818 4.28 3.818c4.148 0 7.632-3.165 8.084-7.346a9.144 9.144 0 0 1-1.664.144c-2.25 0-3.315-.435-5.564-.435"/>
            </g>
        </svg>
    </g>
    <g>
        <svg fill="#2f3fb5" height="150px" width="150px"
             viewBox="0 0 1000 1000" x="10.2" y="16.2" xml:space="preserve">
            <g id="group">
	            <path d="M24,15.9c0-2.8-1.5-5-3.7-6.1C21.3,8.8,22,7.5,22,6c0-2.8-2.2-5-5-5c-2.1,0-3.8,1.2-4.6,3c0,0,0,0,0,0c-0.1,0-0.3,0-0.4,0
		c-0.1,0-0.3,0-0.4,0c0,0,0,0,0,0C10.8,2.2,9.1,1,7,1C4.2,1,2,3.2,2,6c0,1.5,0.7,2.8,1.7,3.8C1.5,10.9,0,13.2,0,15.9V20h5v3h14v-3h5
		V15.9z M17,3c1.7,0,3,1.3,3,3c0,1.6-1.3,3-3,3c0-1.9-1.1-3.5-2.7-4.4c0,0,0,0,0,0C14.8,3.6,15.8,3,17,3z M13.4,4.2
		C13.4,4.2,13.4,4.2,13.4,4.2C13.4,4.2,13.4,4.2,13.4,4.2z M15,9c0,1.7-1.3,3-3,3s-3-1.3-3-3s1.3-3,3-3S15,7.3,15,9z M10.6,4.2
		C10.6,4.2,10.6,4.2,10.6,4.2C10.6,4.2,10.6,4.2,10.6,4.2z M7,3c1.2,0,2.2,0.6,2.7,1.6C8.1,5.5,7,7.1,7,9C5.3,9,4,7.7,4,6S5.3,3,7,3
		z M5.1,18H2v-2.1C2,13.1,4.1,11,7,11v0c0,0,0,0,0,0c0.1,0,0.2,0,0.3,0c0,0,0,0,0,0c0.3,0.7,0.8,1.3,1.3,1.8
		C6.7,13.8,5.4,15.7,5.1,18z M17,21H7v-2.1c0-2.8,2.2-4.9,5-4.9c2.9,0,5,2.1,5,4.9V21z M22,18h-3.1c-0.3-2.3-1.7-4.2-3.7-5.2
		c0.6-0.5,1-1.1,1.3-1.8c0.1,0,0.2,0,0.4,0v0c2.9,0,5,2.1,5,4.9V18z"/>
            </g>
        </svg>
    </g>
    <g>
        <svg x="7.5" y="5" width="200px" height="200px" viewBox="0 0 800 800" style="filter:url(#dropshadow)">
            <style type="text/css">
                .st0{fill:none;stroke:#5B6DEE;stroke-width:2;stroke-linecap:round;stroke-linejoin:round;stroke-miterlimit:10;}
            </style>
            <line class="st0" x1="16" y1="19" x2="16" y2="12"/>
            <line class="st0" x1="19" y1="19" x2="19" y2="12"/>
            <line class="st0" x1="22" y1="19" x2="22" y2="13"/>
            <path class="st0" d="M23,29L23,29c1.3-3.3,2-6.8,2-10.4v-5.1c0-0.8-0.7-1.5-1.5-1.5S22,12.7,22,13.5v-1c0-0.8-0.7-1.5-1.5-1.5
	S19,11.7,19,12.5v-1c0-0.8-0.7-1.5-1.5-1.5S16,10.7,16,11.5v1c0-0.8-0.7-1.5-1.5-1.5S13,11.7,13,12.5V20v2.4l-2.5-2.5
	c-0.6-0.6-1.5-0.7-2.1-0.2c-0.8,0.6-0.9,1.8-0.2,2.5L15,29"/>
            <path class="st0" d="M23.7,27c4,0.2,7.3-3,7.3-7c0-1.2-0.3-2.3-0.8-3.3c-0.8-1.5-0.9-3.2-0.4-4.7c0.3-1,0.4-2,0.2-3.1
	c-0.5-2.9-2.8-5.2-5.7-5.7c-1.6-0.3-3.2,0-4.5,0.7C18,4.7,16,4.9,14.1,4.3c-1-0.3-2.2-0.4-3.4-0.2C7.9,4.6,5.6,6.9,5.1,9.7
	c0,0,0,0.1,0,0.1c-0.5,3.1-1.6,6-3.2,8.8c-0.8,1.4-1.1,3-0.8,4.7c0.5,2.8,2.7,5.1,5.5,5.6c2.5,0.5,4.8-0.3,6.4-1.9"/>
        </svg>
    </g>
</svg>