<svg id="crew" width="800px" height="800px" viewBox="0 0 24 24" fill="none" xmlns="http://www.w3.org/2000/svg">
    <path fill-rule="evenodd" clip-rule="evenodd" d="M16 6C14.34 6 13 7.34 13 9C13 10.65 14.34 12 16 12C17.65 12 19 10.65 19 9C19 7.34 17.65 6 16 6ZM11 9C11 6.23 13.23 4 16 4C18.76 4 21 6.23 21 9C21 10.31 20.48 11.51 19.65 12.41C21.49 13 22.91 14.19 23.82 15.53C24.13 15.98 24 16.61 23.56 16.92C23.10 17.23 22.48 17.11 22.17 16.65C21.19 15.22 19.41 14 17 14C13.16 14 11 17 11 19C11 19.55 10.55 20 10 20C9.44 20 9 19.55 9 19C9 18.30 9.15 17.57 9.46 16.84C9.38 16.79 9.31 16.73 9.24 16.66C8.42 15.72 7.15 15 5.50 15C3.84 15 2.57 15.72 1.75 16.66C1.38 17 0.75 17.11 0.33 16.75C-0 16.38 -0.11 15.75 0.24 15.33C0.80 14.70 1.51 14.13 2.35 13.72C1.51 12.90 1 11.76 1 10.5C1 8 3 6 5.50 6C7.98 6 10 8 10 10.5C10 11.76 9.48 12.90 8.64 13.72C9.36 14 9.99 14.54 10.50 15C11.15 14.26 11.98 13.53 12.99 12.99C11.78 12 11 10.63 11 9ZM3 10.5C3 9.11 4.11 8 5.50 8C6.88 8 8 9.11 8 10.5C8 11.88 6.88 13 5.50 13C4.11 13 3 11.88 3 10.5Z" fill="#000000"/>
</svg>