<?xml version="1.0" encoding="utf-8"?>
<svg width="800px" height="800px" viewBox="0 0 24 24" fill="none" xmlns="http://www.w3.org/2000/svg">
    <circle fill="#2f3fb5" cx="12" cy="9" r="7"/>
    <path fill="#5B6DEE" d="M7.54 14.40L7.35 15L6.71 17.32C6.08 19.61 5.77 20.76 6.19 21.38C6.33 21.60 6.53 21.78 6.76 21.90C7.41 22.23 8.42 21.70 10.43 20.65C11.10 20.30 11.44 20.13 11.80 20.09C11.93 20.08 12.06 20.08 12.19 20.09C12.55 20.13 12.89 20.30 13.56 20.65C15.57 21.70 16.58 22.23 17.23 21.90C17.46 21.78 17.66 21.60 17.80 21.38C18.22 20.76 17.91 19.61 17.28 17.32L16.64 15L16.45 14.40C15.24 15.39 13.69 16 12 16C10.30 16 8.75 15.39 7.54 14.40Z"/>
</svg>