<?xml version="1.0" encoding="utf-8"?>
<svg width="800px" height="800px" viewBox="0 0 24 24" fill="none" xmlns="http://www.w3.org/2000/svg">
    <path
            fill-rule="evenodd"
            clip-rule="evenodd"
            d="M12 2.75C8.54 2.75 5.75 5.54 5.75 9C5.75 12.45 8.54 15.25 12 15.25C15.45 15.25 18.25 12.45 18.25 9C18.25 5.54 15.45 2.75 12 2.75ZM4.25 9C4.25 4.71 7.71 1.25 12 1.25C16.28 1.25 19.75 4.71 19.75 9C19.75 11.22 18.81 13.23 17.30 14.64C17.33 14.69 17.35 14.74 17.37 14.80L18.02 17.17C18.32 18.27 18.56 19.16 18.68 19.86C18.78 20.53 18.81 21.23 18.43 21.80C18.21 22.12 17.92 22.39 17.57 22.56C16.94 22.88 16.25 22.73 15.64 22.49C15.01 22.26 14.22 21.85 13.26 21.34L13.21 21.32C12.48 20.94 12.30 20.86 12.11 20.84C12.03 20.83 11.96 20.83 11.88 20.84C11.69 20.86 11.51 20.94 10.78 21.32L10.73 21.34C9.77 21.85 8.98 22.26 8.35 22.49C7.74 22.73 7.05 22.88 6.42 22.56C6.07 22.39 5.78 22.12 5.56 21.80C5.18 21.23 5.21 20.53 5.31 19.86C5.43 19.16 5.67 18.27 5.97 17.17L6.62 14.80C6.64 14.74 6.66 14.69 6.69 14.64C5.18 13.23 4.25 11.22 4.25 9ZM7.96 15.61L7.43 17.52C7.11 18.68 6.89 19.49 6.80 20.09C6.69 20.72 6.77 20.91 6.81 20.97C6.89 21.08 6.99 21.17 7.10 21.23C7.12 21.24 7.27 21.30 7.82 21.09C8.35 20.89 9.06 20.52 10.09 19.99C10.12 19.97 10.16 19.95 10.19 19.93C10.76 19.64 11.22 19.40 11.72 19.35C11.90 19.33 12.09 19.33 12.27 19.35C12.77 19.40 13.23 19.64 13.80 19.93C13.83 19.95 13.87 19.97 13.90 19.99C14.93 20.52 15.64 20.89 16.17 21.09C16.72 21.30 16.87 21.24 16.89 21.23C17.00 21.17 17.10 21.08 17.18 20.97C17.22 20.91 17.30 20.72 17.19 20.09C17.10 19.49 16.88 18.68 16.56 17.52L16.03 15.61C14.86 16.33 13.48 16.75 12 16.75C10.51 16.75 9.13 16.33 7.96 15.61Z" fill="#1C274C"/>
</svg>